<?xml version="1.0" standalone="no"?>
<!DOCTYPE svg PUBLIC "-//W3C//DTD SVG 20010904//EN"
 "http://www.w3.org/TR/2001/REC-SVG-20010904/DTD/svg10.dtd">
<svg version="1.0" xmlns="http://www.w3.org/2000/svg"
 width="700.000000pt" height="700.000000pt" viewBox="0 0 700.000000 700.000000"
 preserveAspectRatio="xMidYMid meet">
<metadata>
Created by potrace 1.11, written by Peter Selinger 2001-2013
</metadata>
<g transform="translate(0.000000,700.000000) scale(0.100000,-0.100000)"
fill="#000000" stroke="none">
<path d="M3317 6764 c-229 -41 -473 -194 -606 -379 l-23 -33 -47 34 c-72 51
-196 110 -293 138 -614 178 -1232 -275 -1252 -916 -12 -383 199 -737 539 -906
100 -50 184 -78 272 -92 73 -12 81 -16 87 -46 2 -10 52 -260 111 -554 59 -294
109 -544 111 -555 2 -11 8 -42 14 -70 6 -27 12 -61 15 -75 31 -158 51 -250 57
-260 4 -7 22 -5 121 15 66 14 87 22 87 34 -1 9 -14 77 -29 151 -16 74 -28 136
-27 138 2 1 473 1 1047 0 l1045 -3 -29 -148 c-16 -81 -28 -150 -25 -152 2 -2
18 -6 35 -10 18 -3 63 -12 100 -19 37 -8 70 -13 72 -10 2 2 10 34 17 71 7 38
16 79 19 92 2 14 18 93 35 176 41 205 40 197 45 225 2 14 47 239 100 500 52
261 95 477 95 480 0 3 36 11 81 18 374 59 707 366 790 730 6 26 13 56 16 67 2
11 7 67 10 124 21 392 -192 756 -544 930 -321 158 -705 133 -990 -66 l-61 -42
-18 27 c-21 32 -21 32 -104 117 -65 66 -152 130 -244 179 -49 26 -181 74 -226
83 -136 25 -283 28 -403 7z m368 -224 c84 -21 245 -105 311 -162 63 -55 138
-146 171 -208 27 -53 46 -76 70 -88 48 -26 104 -9 158 48 123 130 341 216 540
213 44 0 146 -13 156 -19 3 -2 21 -6 39 -9 51 -9 177 -71 239 -117 126 -93
229 -232 275 -371 31 -92 38 -133 41 -236 8 -329 -211 -639 -522 -738 -84 -26
-102 -30 -208 -39 -102 -9 -132 -35 -150 -129 -4 -22 -9 -51 -11 -64 -17 -87
-196 -979 -200 -993 -5 -16 -24 -18 -215 -18 -196 0 -210 1 -205 18 4 17 10
54 21 142 3 25 8 52 10 60 2 8 7 40 10 70 3 30 7 62 10 70 2 8 7 42 10 75 4
32 8 62 10 65 10 17 15 140 6 141 -6 1 -14 2 -18 3 -13 3 -95 15 -143 21 -39
5 -46 4 -46 -12 0 -10 -3 -36 -7 -58 -10 -64 -27 -186 -33 -230 -2 -22 -7 -51
-9 -65 -2 -14 -7 -47 -11 -75 -3 -27 -8 -57 -9 -66 -2 -9 -6 -38 -10 -65 -3
-27 -7 -58 -9 -69 -3 -19 -12 -20 -174 -23 l-172 -2 0 602 0 603 -67 -2 c-38
-1 -87 -2 -110 -2 l-43 -1 0 -600 0 -600 -170 0 c-93 0 -170 3 -171 8 0 4 -2
14 -4 22 -1 8 -6 35 -9 60 -4 25 -9 56 -11 70 -3 14 -7 45 -10 70 -3 25 -7 56
-10 70 -2 14 -6 41 -9 60 -3 19 -12 87 -21 150 -9 63 -18 124 -19 135 -4 22
-13 23 -109 12 -112 -13 -110 -12 -103 -76 3 -31 8 -67 11 -81 3 -13 7 -42 10
-65 3 -22 10 -69 15 -105 10 -71 16 -107 31 -217 5 -39 12 -81 14 -92 4 -21 1
-21 -205 -21 -190 0 -209 2 -214 18 -5 18 -114 554 -123 607 -28 164 -105 511
-117 530 -23 35 -41 42 -134 49 -423 35 -730 373 -717 789 16 511 516 860
1004 700 94 -30 195 -89 268 -157 67 -61 92 -76 127 -76 47 0 72 21 124 108
114 186 268 303 472 358 71 19 105 23 205 20 66 -2 143 -9 170 -16z"/>
<path d="M1254 6738 c-16 -13 -33 -26 -39 -30 -25 -18 -133 -115 -164 -147
-135 -140 -261 -348 -316 -521 -10 -30 -20 -62 -23 -70 -12 -35 -29 -116 -42
-195 -11 -66 -14 -301 -6 -355 3 -14 7 -43 10 -66 7 -49 53 -235 61 -242 4 -4
190 54 203 63 1 1 -9 46 -22 99 -46 176 -52 325 -22 516 9 58 47 183 76 254
79 189 206 354 378 489 35 27 62 52 60 56 -9 21 -114 171 -119 171 -3 0 -19
-10 -35 -22z"/>
<path d="M966 4935 c-32 -19 -61 -35 -65 -35 -3 0 -17 -9 -30 -19 l-24 -18 52
-77 c28 -42 65 -92 82 -111 l31 -35 37 31 c102 89 124 112 115 124 -5 7 -35
49 -67 94 -32 44 -62 81 -66 81 -4 0 -33 -16 -65 -35z"/>
<path d="M1007 4154 c-1 -1 -29 -4 -62 -8 -285 -27 -532 -204 -655 -468 -47
-102 -69 -203 -72 -328 -6 -278 162 -605 401 -783 31 -23 57 -45 59 -49 2 -5
8 -8 12 -8 5 0 25 -11 45 -24 99 -68 273 -128 413 -144 170 -20 357 9 510 79
36 16 71 28 77 27 16 -4 1065 -750 1065 -757 0 -3 -71 -51 -158 -106 -458
-291 -872 -560 -908 -590 -116 -95 -172 -268 -137 -419 28 -122 115 -231 227
-286 75 -37 102 -43 191 -43 125 0 171 21 397 181 106 75 531 377 786 558 236
168 301 210 314 202 10 -5 147 -100 305 -213 159 -112 303 -214 321 -227 18
-13 39 -27 45 -33 7 -5 26 -19 42 -31 17 -11 146 -103 287 -203 141 -100 283
-193 315 -208 80 -35 211 -40 297 -11 297 100 393 471 179 699 -28 30 -133
104 -284 201 -132 84 -297 190 -367 235 -70 44 -200 128 -289 184 -90 57 -163
106 -163 110 0 5 166 125 400 290 36 25 199 141 363 257 164 117 302 212 306
212 5 0 38 -13 74 -30 304 -138 664 -105 953 86 232 153 410 399 459 634 20
93 23 127 21 230 -6 220 -81 396 -234 547 -216 212 -548 289 -875 203 -355
-94 -653 -377 -747 -712 -29 -101 -35 -146 -35 -274 l0 -112 -145 -93 c-80
-51 -181 -116 -225 -145 -44 -28 -134 -86 -200 -128 -66 -42 -127 -81 -135
-86 -202 -132 -673 -430 -680 -430 -8 0 -347 213 -462 291 -31 22 -62 39 -67
39 -6 0 -11 4 -11 8 0 5 -10 13 -22 19 -13 6 -85 50 -160 99 -76 49 -187 121
-247 159 -61 39 -179 115 -262 170 l-152 100 -3 135 c-2 109 -8 153 -29 230
-62 227 -194 414 -390 555 -114 82 -276 159 -376 179 -115 23 -155 28 -227 30
-46 1 -84 1 -85 0z m260 -243 c98 -27 160 -53 239 -101 82 -50 86 -53 173
-141 154 -154 223 -328 216 -549 -2 -58 -6 -117 -9 -132 -14 -64 8 -86 230
-228 115 -73 238 -152 274 -175 36 -23 148 -95 250 -160 181 -115 242 -154
385 -247 39 -25 129 -83 200 -128 72 -45 153 -97 180 -115 64 -42 910 -583
1075 -688 69 -44 154 -99 190 -122 36 -23 148 -95 250 -160 210 -134 224 -145
251 -198 51 -99 14 -222 -84 -278 -51 -28 -145 -32 -192 -7 -16 9 -147 100
-290 201 -143 102 -297 212 -343 244 -45 32 -90 64 -100 71 -9 7 -91 66 -182
130 -91 64 -363 257 -605 429 -242 171 -458 325 -480 341 -22 16 -166 118
-320 227 -154 109 -388 275 -520 369 -132 94 -256 179 -275 189 -43 22 -73 16
-148 -28 -56 -33 -174 -77 -242 -91 -61 -12 -202 -10 -270 2 -124 24 -217 65
-335 149 -243 172 -382 468 -342 727 31 200 199 398 390 460 120 39 308 43
434 9z m4847 5 c234 -64 396 -237 441 -471 22 -115 -8 -290 -73 -420 -89 -179
-285 -355 -475 -423 -101 -37 -161 -46 -282 -44 -136 1 -237 32 -402 121 -31
16 -51 21 -73 16 -29 -6 -180 -111 -1028 -713 -64 -46 -129 -92 -144 -103 -16
-10 -41 -28 -57 -40 l-29 -21 -113 74 c-63 41 -128 83 -146 94 l-32 20 77 47
c42 26 174 111 292 187 118 77 225 145 237 152 13 7 152 96 310 198 529 339
504 319 497 385 -21 202 -8 329 47 462 104 248 368 449 644 489 22 4 42 8 43
9 11 10 215 -6 266 -19z m-2958 -2472 c82 -59 150 -107 151 -108 1 -1 -153
-112 -343 -246 -190 -135 -364 -259 -387 -276 -207 -154 -465 -328 -500 -339
-126 -37 -253 42 -270 167 -8 62 11 123 51 167 29 30 470 323 634 420 42 25
344 220 423 273 39 26 75 47 81 47 6 1 78 -47 160 -105z"/>
<path d="M6545 2418 c-195 -160 -419 -259 -665 -292 -133 -18 -364 2 -498 43
-66 20 -113 20 -142 -1 -10 -7 -62 -44 -117 -82 -54 -39 -100 -72 -103 -75 -3
-4 -25 -20 -50 -36 -25 -16 -47 -32 -50 -35 -3 -3 -34 -25 -70 -49 -111 -76
-107 -62 -43 -155 65 -94 70 -98 92 -80 9 7 108 78 220 157 l203 144 77 -19
c42 -10 99 -21 126 -25 68 -10 346 -10 417 0 188 26 422 116 591 226 90 59
207 151 207 163 0 4 -28 37 -62 74 -35 36 -64 70 -66 75 -6 15 -14 10 -67 -33z"/>
</g>
</svg>
